<svg width="138" height="42" viewBox="0 0 138 42" fill="none" xmlns="http://www.w3.org/2000/svg">
<g clip-path="url(#clip0_694_4258)">
<path opacity="0.75" d="M30.6924 18.8599V26.4668L38.2987 22.6636L30.6924 18.8599Z" fill="#8E84FF"/>
<path opacity="0.75" d="M32.1389 12.5664L40.9238 21.3513C40.925 18.4685 40.3171 15.618 39.1398 12.9866C37.9626 10.3551 36.2426 8.00218 34.0925 6.08184C31.9425 4.16151 29.4109 2.71715 26.6637 1.84343C23.9166 0.969704 21.0158 0.686327 18.1515 1.01187C15.2871 1.33742 12.5239 2.26453 10.0429 3.73247C7.56184 5.2004 5.419 7.17601 3.75474 9.52985C2.09048 11.8837 0.942372 14.5627 0.385662 17.3912C-0.171048 20.2197 -0.123803 23.1339 0.524304 25.9428L8.78427 17.6829C9.16786 17.2996 9.68796 17.0843 10.2302 17.0843C10.7725 17.0843 11.2926 17.2996 11.6762 17.6829L17.9025 23.9092L29.2454 12.5664C29.4354 12.3764 29.6609 12.2256 29.9091 12.1227C30.1574 12.0199 30.4235 11.9669 30.6922 11.9669C30.9609 11.9669 31.2269 12.0199 31.4752 12.1227C31.7234 12.2256 31.949 12.3764 32.1389 12.5664ZM12.1945 10.0728C12.1945 9.26341 12.4346 8.47219 12.8842 7.79921C13.3339 7.12622 13.973 6.6017 14.7208 6.29196C15.4686 5.98222 16.2914 5.90119 17.0853 6.0591C17.8791 6.217 18.6083 6.60674 19.1806 7.17906C19.7529 7.75138 20.1427 8.48058 20.3006 9.27442C20.4585 10.0683 20.3774 10.8911 20.0677 11.6389C19.758 12.3866 19.2334 13.0258 18.5604 13.4755C17.8875 13.9251 17.0963 14.1651 16.2869 14.1651C15.2017 14.1651 14.161 13.7341 13.3935 12.9669C12.6261 12.1997 12.1948 11.159 12.1945 10.0739V10.0728Z" fill="#00B1FF"/>
<path opacity="0.75" d="M24.1299 30.1362L17.9036 23.9104L5.99268 35.8207C8.10908 37.9377 10.6643 39.5644 13.478 40.586C16.2917 41.6077 19.2953 41.9994 22.2769 41.7336C25.2585 41.4677 28.1454 40.5508 30.734 39.0474C33.3225 37.5441 35.5496 35.491 37.2581 33.033L30.6929 26.4678L27.0235 30.1362C26.8335 30.3262 26.6079 30.477 26.3597 30.5799C26.1114 30.6827 25.8454 30.7357 25.5767 30.7357C25.308 30.7357 25.0419 30.6827 24.7937 30.5799C24.5454 30.477 24.3199 30.3262 24.1299 30.1362Z" fill="#23E880"/>
<path d="M16.2872 5.98108C15.4778 5.98108 14.6865 6.22109 14.0136 6.67076C13.3406 7.12043 12.8161 7.75957 12.5063 8.50735C12.1966 9.25512 12.1156 10.078 12.2735 10.8718C12.4314 11.6656 12.8211 12.3948 13.3935 12.9671C13.9658 13.5394 14.6949 13.9292 15.4888 14.0871C16.2826 14.245 17.1054 14.164 17.8532 13.8542C18.601 13.5445 19.2401 13.02 19.6898 12.347C20.1395 11.674 20.3795 10.8828 20.3795 10.0734C20.3795 8.98806 19.9483 7.94717 19.1809 7.1797C18.4134 6.41224 17.3725 5.98108 16.2872 5.98108ZM16.2872 13.0745C15.6936 13.0745 15.1134 12.8984 14.6199 12.5687C14.1263 12.2389 13.7417 11.7702 13.5145 11.2218C13.2874 10.6735 13.228 10.0701 13.3438 9.48794C13.4596 8.90579 13.7454 8.37105 14.1651 7.95135C14.5848 7.53164 15.1195 7.24585 15.7017 7.13005C16.2838 7.01425 16.8872 7.07365 17.4356 7.3008C17.984 7.52794 18.4527 7.91262 18.7824 8.40614C19.1122 8.89966 19.2882 9.47986 19.2882 10.0734C19.2873 10.8691 18.9709 11.6319 18.4083 12.1945C17.8456 12.7571 17.0828 13.0736 16.2872 13.0745Z" fill="#00193C"/>
<path d="M56.3848 31.5821V9.80438H59.8643V19.0596H69.6314V9.80438H73.1109V31.5821H69.6314V22.2194H59.8643V31.5821H56.3848Z" fill="#00193C"/>
<path d="M83.9989 31.8724C82.8725 31.8918 81.761 31.6138 80.7763 31.0665C79.8326 30.5314 79.0613 29.7378 78.5534 28.7792C77.9906 27.6836 77.7136 26.4637 77.748 25.2325V15.6979H81.0666V25.0072C81.0666 26.3822 81.4104 27.3971 82.0979 28.0519C82.8869 28.7443 83.9173 29.0973 84.9652 29.034C85.5772 29.0579 86.1871 28.9477 86.7521 28.7111C87.317 28.4746 87.8234 28.1173 88.2358 27.6644C89.0619 26.7521 89.4752 25.4366 89.4755 23.7178V15.6968H92.7947V31.5822H89.5404V29.1982H89.0254C88.6488 29.93 88.0951 30.5557 87.4146 31.0185C86.6405 31.5871 85.5019 31.8717 83.9989 31.8724Z" fill="#00193C"/>
<path d="M103.652 31.5821C103.229 31.6033 102.806 31.537 102.409 31.3874C102.013 31.2377 101.652 31.0079 101.348 30.7124C101.058 30.4027 100.832 30.0377 100.685 29.6392C100.539 29.2406 100.474 28.8165 100.494 28.3923V18.5008H96.1123V15.6978H100.494V11.1172H103.813V15.6978H111.225V11.1172H114.511V15.6978H119.28V18.5008H114.511V27.8123C114.491 27.9411 114.5 28.073 114.539 28.1975C114.579 28.322 114.646 28.4357 114.737 28.5295C114.828 28.6233 114.939 28.6947 115.062 28.738C115.185 28.7814 115.317 28.7954 115.446 28.7791H118.733V31.5821H114.383C113.957 31.6062 113.53 31.5414 113.131 31.3916C112.732 31.2419 112.368 31.0105 112.063 30.7124C111.777 30.4002 111.555 30.0344 111.411 29.6362C111.268 29.238 111.204 28.8152 111.225 28.3923V18.5008H103.812V27.8123C103.812 28.4572 104.113 28.7795 104.714 28.7791H108.033V31.5821H103.652Z" fill="#00193C"/>
<path d="M130.461 32.0328C128.99 32.0673 127.535 31.7177 126.24 31.0185C125.049 30.3537 124.072 29.365 123.42 28.1669C122.718 26.8382 122.369 25.3516 122.405 23.8492V23.4624C122.369 21.9602 122.719 20.4738 123.42 19.1452C124.068 17.9512 125.032 16.9591 126.207 16.2779C127.465 15.5707 128.89 15.2145 130.332 15.2466C131.736 15.2156 133.123 15.5664 134.343 16.2615C135.486 16.9314 136.418 17.9081 137.034 19.0808C137.702 20.3854 138.034 21.8361 138 23.3014V24.5564H125.789C125.781 25.1787 125.901 25.7961 126.142 26.3699C126.383 26.9436 126.74 27.4616 127.19 27.8914C128.097 28.7246 129.294 29.1697 130.525 29.1316C131.535 29.2063 132.538 28.9083 133.344 28.2941C133.961 27.7577 134.46 27.0995 134.81 26.3609L137.581 27.7795C137.207 28.4567 136.764 29.0937 136.26 29.6806C135.638 30.3946 134.868 30.9661 134.005 31.3562C132.888 31.8415 131.678 32.0725 130.461 32.0328ZM125.823 22.0132H134.651C134.596 20.9414 134.122 19.9344 133.33 19.2096C132.486 18.4974 131.405 18.1293 130.301 18.1789C129.203 18.1089 128.12 18.4705 127.284 19.1865C126.447 19.9026 125.923 20.9167 125.823 22.0132Z" fill="#00193C"/>
<path d="M30.6928 11.9662C30.9616 11.9658 31.2278 12.0187 31.4761 12.1218C31.7243 12.2248 31.9497 12.3759 32.1393 12.5664L40.9242 21.3512C40.9242 15.9245 38.7685 10.72 34.9311 6.88268C31.0938 3.04538 25.8893 0.889588 20.4625 0.889588V1.98088C25.1059 1.98685 29.593 3.65789 33.1092 6.69056C36.6253 9.72322 38.9372 13.9163 39.625 18.5084L32.9136 11.797C32.6223 11.5057 32.2765 11.2746 31.8959 11.1169C31.5152 10.9592 31.1073 10.878 30.6953 10.878C30.2833 10.878 29.8753 10.9592 29.4947 11.1169C29.1141 11.2746 28.7683 11.5057 28.477 11.797L17.9068 22.3667L12.4503 16.9103C11.8618 16.3221 11.0638 15.9917 10.2317 15.9917C9.39966 15.9917 8.60167 16.3221 8.01314 16.9103L1.23514 23.6877C0.912336 21.0324 1.14297 18.339 1.9125 15.7773C2.68204 13.2155 3.9738 10.8409 5.7064 8.80306C7.43901 6.7652 9.57488 5.10827 11.9795 3.93666C14.3841 2.76505 17.0053 2.10415 19.6779 1.99561C19.9409 1.98525 20.2017 1.97978 20.4625 1.97978V0.888489C20.1875 0.888489 19.9116 0.893961 19.6348 0.904874C16.6301 1.02704 13.6893 1.80999 11.0216 3.19802C8.35388 4.58605 6.02492 6.54504 4.20045 8.93554C2.37599 11.3261 1.10087 14.0893 0.465833 17.0287C-0.169205 19.9681 -0.148545 23.0113 0.526345 25.9418L8.78631 17.6818C9.17011 17.2989 9.69013 17.0838 10.2323 17.0838C10.7744 17.0838 11.2944 17.2989 11.6782 17.6818L17.904 23.9081L29.2458 12.5664C29.4355 12.3759 29.661 12.2247 29.9093 12.1217C30.1577 12.0187 30.424 11.9658 30.6928 11.9662Z" fill="#00193C"/>
<path d="M25.577 30.7364C25.3081 30.7367 25.0418 30.6839 24.7935 30.5809C24.5451 30.4778 24.3196 30.3267 24.1299 30.1362L17.9036 23.9104L5.99268 35.8207C8.10908 37.9377 10.6643 39.5644 13.478 40.586C16.2917 41.6077 19.2953 41.9994 22.2769 41.7336C25.2585 41.4677 28.1454 40.5508 30.734 39.0474C33.3225 37.5441 35.5496 35.491 37.2581 33.033L30.6929 26.4678L27.0235 30.1362C26.8339 30.3267 26.6085 30.4779 26.3602 30.5809C26.112 30.6839 25.8457 30.7368 25.577 30.7364ZM30.6924 28.0126L35.8247 33.1443C34.2027 35.259 32.1616 37.0161 29.8293 38.3056C27.497 39.5952 24.9237 40.3895 22.2703 40.6388C19.6169 40.8882 16.9406 40.5872 14.4089 39.7546C11.8772 38.9221 9.5446 37.576 7.55704 35.8005L17.9036 25.4546L23.36 30.911C23.6513 31.2024 23.9971 31.4335 24.3778 31.5912C24.7584 31.7488 25.1663 31.83 25.5783 31.83C25.9903 31.83 26.3983 31.7488 26.7789 31.5912C27.1595 31.4335 27.5053 31.2024 27.7966 30.911L30.6924 28.0126Z" fill="#00193C"/>
<path d="M30.6924 17.6071V26.4667L39.5515 22.0372L30.6924 17.6071ZM31.7837 19.3728L37.1113 22.0372L31.7837 24.701V19.3728Z" fill="#00193C"/>
</g>
<defs>
<clipPath id="clip0_694_4258">
<rect width="138" height="40.9233" fill="white" transform="translate(0 0.889648)"/>
</clipPath>
</defs>
</svg>
